<?xml version="1.0" encoding="UTF-8" standalone="no"?>
<svg
   xmlns:dc="http://purl.org/dc/elements/1.1/"
   xmlns:cc="http://creativecommons.org/ns#"
   xmlns:rdf="http://www.w3.org/1999/02/22-rdf-syntax-ns#"
   xmlns:svg="http://www.w3.org/2000/svg"
   xmlns="http://www.w3.org/2000/svg"
   xmlns:sodipodi="http://sodipodi.sourceforge.net/DTD/sodipodi-0.dtd"
   xmlns:inkscape="http://www.inkscape.org/namespaces/inkscape"
   inkscape:version="1.0 (4035a4fb49, 2020-05-01)"
   sodipodi:docname="ISO_7010_W024-Hand-Crush.svg"
   id="svg10"
   version="1.1"
   width="29.435886mm"
   height="25.800001mm">
  <defs
     id="defs14" />
  <sodipodi:namedview
     fit-margin-bottom="0.4"
     fit-margin-right="0.4"
     fit-margin-left="0.4"
     lock-margins="true"
     fit-margin-top="0.4"
     units="mm"
     inkscape:current-layer="svg10"
     inkscape:window-maximized="1"
     inkscape:window-y="-8"
     inkscape:window-x="1912"
     inkscape:cy="68.107901"
     inkscape:cx="119.62425"
     inkscape:zoom="4.5793581"
     showgrid="false"
     id="namedview12"
     inkscape:window-height="1017"
     inkscape:window-width="1920"
     inkscape:pageshadow="2"
     inkscape:pageopacity="0"
     guidetolerance="10"
     gridtolerance="10"
     objecttolerance="10"
     borderopacity="1"
     bordercolor="#666666"
     pagecolor="#ffffff"
     inkscape:document-rotation="0" />
  <metadata
     id="metadata2">
    <rdf:RDF>
      <cc:Work
         rdf:about="">
        <dc:format>image/svg+xml</dc:format>
        <dc:type
           rdf:resource="http://purl.org/dc/dcmitype/StillImage" />
        <dc:title></dc:title>
      </cc:Work>
    </rdf:RDF>
  </metadata>
  <g
     style="stroke:none;stroke-width:5.54143"
     transform="matrix(0.18045873,0,0,0.18045873,1.5072996,1.511811)"
     id="g21">
    <g
       style="stroke:none;stroke-width:5.54143"
       id="g15">
      <path
         style="stroke:none;stroke-width:5.54143"
         id="path4"
         d="M 597.6,499.6 313.8,8 C 310.9,3 305.6,0 299.9,0 294.2,0 288.9,3.1 286,8 L 2.2,499.6 c -2.9,5 -2.9,11.1 0,16 2.9,5 8.2,8 13.9,8 h 567.6 c 5.7,0 11,-3.1 13.9,-8 2.9,-5 2.9,-11.1 0,-16 z" />
      <polygon
         style="fill:#ffe100;fill-opacity:1;stroke:none;stroke-width:5.54143"
         id="polygon6"
         transform="matrix(1,0,0,0.99591458,0.125,2.0332437)"
         fill="#f6bd16"
         points="43.875,491.5 299.88,48.2 555.88,491.5 " />
    </g>
    <path
       style="color:#000000;stroke:none;stroke-width:30.7075;enable-background:accumulate"
       d="m 447,350 v 70 h -30 c -4.886,7.1636 -7.8772,15.129 -30,15 H 262 c -10,0 -10,-15 0,-15 h 60 v -5 h -80 c -10,0 -10,-20 0,-20 h 80 v -3.3247 h -95 c -12.41,-1.68 -10,-18.84 0,-18.68 h 95 v -4.4175 h -85 c -10,-0.42 -10,-18.58 0,-18.58 h 85 v -5 h -25 c -10.336,-2.0356 -16.988,-10.118 -15,-19 h 100 c 15.458,-0.37412 29.078,6.6653 35,24 z m -294,90 h 125 v 15 H 153 Z m 0,-110 h 125 v 15 H 153 Z m 55,-85 h 20 v 50 h 15 l -25,30 -25,-30 h 15 z"
       fill-rule="nonzero"
       fill="#000000"
       id="path8" />
  </g>
</svg>
